<svg width="28" height="28" viewBox="0 0 28 28" fill="none" xmlns="http://www.w3.org/2000/svg">
<path d="M14 27.5C10.25 27.5 7.0625 26.1875 4.4375 23.5625C1.8125 20.9375 0.5 17.75 0.5 14C0.5 10.25 1.8125 7.0625 4.4375 4.4375C7.0625 1.8125 10.25 0.5 14 0.5C14.2 0.5 14.4125 0.50625 14.6375 0.51875C14.8625 0.53125 15.15 0.55 15.5 0.575C14.6 1.375 13.9 2.3625 13.4 3.5375C12.9 4.7125 12.65 5.95 12.65 7.25C12.65 9.5 13.4375 11.4125 15.0125 12.9875C16.5875 14.5625 18.5 15.35 20.75 15.35C22.05 15.35 23.2875 15.1187 24.4625 14.6562C25.6375 14.1938 26.625 13.55 27.425 12.725C27.45 13.025 27.4687 13.2687 27.4812 13.4562C27.4937 13.6437 27.5 13.825 27.5 14C27.5 17.75 26.1875 20.9375 23.5625 23.5625C20.9375 26.1875 17.75 27.5 14 27.5ZM14 25.25C16.725 25.25 19.1 24.4062 21.125 22.7188C23.15 21.0312 24.4125 19.05 24.9125 16.775C24.2875 17.05 23.6187 17.2563 22.9062 17.3937C22.1938 17.5312 21.475 17.6 20.75 17.6C17.875 17.6 15.4313 16.5938 13.4188 14.5812C11.4062 12.5687 10.4 10.125 10.4 7.25C10.4 6.65 10.4625 6.00625 10.5875 5.31875C10.7125 4.63125 10.9375 3.85 11.2625 2.975C8.8125 3.65 6.78125 5.01875 5.16875 7.08125C3.55625 9.14375 2.75 11.45 2.75 14C2.75 17.125 3.84375 19.7812 6.03125 21.9688C8.21875 24.1562 10.875 25.25 14 25.25Z" fill="white"/>
</svg>
