<svg width="36" height="35" viewBox="0 0 36 35" fill="none" xmlns="http://www.w3.org/2000/svg">
<path d="M18.0376 34.9125L12.9751 30H6.0001V23.025L0.975098 18L6.0001 12.975V5.99998H12.9751L18.0376 0.974976L23.0251 5.99998H30.0001V12.975L35.0251 18L30.0001 23.025V30H23.0251L18.0376 34.9125ZM18.0376 27.75C20.7376 27.75 23.0313 26.8 24.9188 24.9C26.8063 23 27.7501 20.6875 27.7501 17.9625C27.7501 15.2625 26.8063 12.9687 24.9188 11.0812C23.0313 9.19373 20.7376 8.24998 18.0376 8.24998C15.3126 8.24998 13.0001 9.19373 11.1001 11.0812C9.2001 12.9687 8.2501 15.2625 8.2501 17.9625C8.2501 20.6875 9.2001 23 11.1001 24.9C13.0001 26.8 15.3126 27.75 18.0376 27.75ZM18.0376 25.5C15.9376 25.5 14.1563 24.7687 12.6938 23.3062C11.2313 21.8437 10.5001 20.0625 10.5001 17.9625C10.5001 15.8875 11.2313 14.125 12.6938 12.675C14.1563 11.225 15.9376 10.5 18.0376 10.5C20.1126 10.5 21.8751 11.225 23.3251 12.675C24.7751 14.125 25.5001 15.8875 25.5001 17.9625C25.5001 20.0625 24.7751 21.8437 23.3251 23.3062C21.8751 24.7687 20.1126 25.5 18.0376 25.5ZM18.0376 31.7625L22.0876 27.75H27.7501V22.0875L31.8376 18L27.7501 13.9125V8.24998H22.0876L18.0376 4.16248L13.9126 8.24998H8.2501V13.9125L4.1626 18L8.2501 22.0875V27.75H13.8751L18.0376 31.7625Z" fill="white"/>
</svg>
